# xmcd CD database file
# Copyright (C) 1997 Ti Kan
#
# Track frame offsets:
#  183
#  21183
#  34395
#  46345
#  59858
#  73183
#  90083
#  101833
#  112933
#  128283
#  140270
#  150820
#  162220
#  174125
#  184033
#  195870
#  213133
#  224358
#  236620
#  247645
#
# Disc length: 3573 seconds
#
# Revision: 1
# Processed by: cddbd v1.4b41PL1 Copyright (c) Steve Scherf et al.
# Submitted via: CDWizzard Release:4.20
#
DISCID=f80df314
DTITLE=Various Artist - Giants of Soul, disc 3
DYEAR=1900
DGENRE=
TTITLE0=Midnight Train to Georgia
TTITLE1=I Thank You
TTITLE2=The Boll Weevil Song
TTITLE3=On Broadway
TTITLE4=Soul Man
TTITLE5=Best Thing that Ever Happened to Me
TTITLE6=Some Kind of Wonderful
TTITLE7=It's Just a Matter of Time
TTITLE8=I've Got to Use My Imagination
TTITLE9=Hold on, I'm Coming!
TTITLE10=True Love, True Love
TTITLE11=So Many Ways
TTITLE12=Soothe Me
TTITLE13=Some Kind of Wonderful
TTITLE14=Kiddio
TTITLE15=So Sad the Song
TTITLE16=You Don't Know What You Mean to Me
TTITLE17=Hotel Happiness
TTITLE18=Sweets for My Sweet
TTITLE19=Try to Remember (the Way We Were)
EXTD=
EXTT0=Gladys Knight and The Pips
EXTT1=Sam and Dave
EXTT2=Brook Benton
EXTT3=The Drifters
EXTT4=Sam and Dave
EXTT5=Gladys Knight and The Pips
EXTT6=The Drifters
EXTT7=Brook Benton
EXTT8=Gladys Knight and The Pips
EXTT9=Sam and Dave
EXTT10=The Drifters
EXTT11=Brook Benton
EXTT12=Sam and Dave
EXTT13=The Drifters
EXTT14=Brook Benton
EXTT15=Gladys Knight and The Pips
EXTT16=Sam and Dave
EXTT17=Brook Benton
EXTT18=The Drifters
EXTT19=Gladys Knight and The Pips
PLAYORDER=
